<mxfile host="app.diagrams.net" agent="Mozilla/5.0 (Windows NT 10.0; Win64; x64) AppleWebKit/537.36 (KHTML, like Gecko) Chrome/126.0.0.0 Safari/537.36" version="24.7.6">
  <diagram name="Page-1" id="2q4kmo0DDvuy04fOE5Cv">
    <mxGraphModel dx="2438" dy="984" grid="1" gridSize="10" guides="1" tooltips="1" connect="1" arrows="1" fold="1" page="1" pageScale="1" pageWidth="850" pageHeight="1100" math="0" shadow="0">
      <root>
        <mxCell id="0" />
        <mxCell id="1" parent="0" />
        <mxCell id="8wIXkkKHW7fnLoU9-l2F-1" value="" style="shape=umlActor;verticalLabelPosition=bottom;verticalAlign=top;html=1;outlineConnect=0;" vertex="1" parent="1">
          <mxGeometry x="-90" y="230" width="30" height="60" as="geometry" />
        </mxCell>
        <mxCell id="8wIXkkKHW7fnLoU9-l2F-5" value="&lt;h2&gt;Admin&lt;/h2&gt;" style="rounded=1;whiteSpace=wrap;html=1;" vertex="1" parent="1">
          <mxGeometry x="-130" y="300" width="105" height="30" as="geometry" />
        </mxCell>
        <mxCell id="8wIXkkKHW7fnLoU9-l2F-6" value="" style="whiteSpace=wrap;html=1;aspect=fixed;" vertex="1" parent="1">
          <mxGeometry x="140" y="40" width="600" height="600" as="geometry" />
        </mxCell>
        <mxCell id="8wIXkkKHW7fnLoU9-l2F-7" value="&lt;h1&gt;Dashboard&lt;/h1&gt;" style="rounded=0;whiteSpace=wrap;html=1;" vertex="1" parent="1">
          <mxGeometry x="240" y="70" width="350" height="40" as="geometry" />
        </mxCell>
        <mxCell id="8wIXkkKHW7fnLoU9-l2F-8" value="&lt;h1&gt;Student Info&lt;/h1&gt;" style="rounded=0;whiteSpace=wrap;html=1;" vertex="1" parent="1">
          <mxGeometry x="240" y="130" width="350" height="40" as="geometry" />
        </mxCell>
        <mxCell id="8wIXkkKHW7fnLoU9-l2F-9" value="&lt;h1&gt;Teacher Info&lt;/h1&gt;" style="rounded=0;whiteSpace=wrap;html=1;" vertex="1" parent="1">
          <mxGeometry x="240" y="190" width="350" height="40" as="geometry" />
        </mxCell>
        <mxCell id="8wIXkkKHW7fnLoU9-l2F-10" value="&lt;h1&gt;Teacher Load&lt;/h1&gt;" style="rounded=0;whiteSpace=wrap;html=1;" vertex="1" parent="1">
          <mxGeometry x="240" y="250" width="350" height="40" as="geometry" />
        </mxCell>
        <mxCell id="8wIXkkKHW7fnLoU9-l2F-11" value="&lt;h1&gt;Lecture Matrials&lt;/h1&gt;" style="rounded=0;whiteSpace=wrap;html=1;" vertex="1" parent="1">
          <mxGeometry x="240" y="310" width="350" height="40" as="geometry" />
        </mxCell>
        <mxCell id="8wIXkkKHW7fnLoU9-l2F-12" value="&lt;h1&gt;Test Management&lt;/h1&gt;" style="rounded=0;whiteSpace=wrap;html=1;" vertex="1" parent="1">
          <mxGeometry x="240" y="370" width="350" height="40" as="geometry" />
        </mxCell>
        <mxCell id="8wIXkkKHW7fnLoU9-l2F-13" value="&lt;h1&gt;Chat/Notification&lt;/h1&gt;" style="rounded=0;whiteSpace=wrap;html=1;" vertex="1" parent="1">
          <mxGeometry x="240" y="435" width="350" height="40" as="geometry" />
        </mxCell>
        <mxCell id="8wIXkkKHW7fnLoU9-l2F-14" style="edgeStyle=orthogonalEdgeStyle;rounded=0;orthogonalLoop=1;jettySize=auto;html=1;exitX=0.5;exitY=1;exitDx=0;exitDy=0;entryX=0.515;entryY=1.009;entryDx=0;entryDy=0;entryPerimeter=0;" edge="1" parent="1" source="8wIXkkKHW7fnLoU9-l2F-6" target="8wIXkkKHW7fnLoU9-l2F-6">
          <mxGeometry relative="1" as="geometry" />
        </mxCell>
        <mxCell id="8wIXkkKHW7fnLoU9-l2F-15" value="&lt;h1&gt;Report&lt;/h1&gt;" style="rounded=0;whiteSpace=wrap;html=1;" vertex="1" parent="1">
          <mxGeometry x="240" y="490" width="350" height="40" as="geometry" />
        </mxCell>
        <mxCell id="8wIXkkKHW7fnLoU9-l2F-16" value="&lt;h1&gt;Database Backup&lt;/h1&gt;" style="rounded=0;whiteSpace=wrap;html=1;" vertex="1" parent="1">
          <mxGeometry x="240" y="560" width="350" height="40" as="geometry" />
        </mxCell>
        <mxCell id="8wIXkkKHW7fnLoU9-l2F-17" style="edgeStyle=orthogonalEdgeStyle;rounded=0;orthogonalLoop=1;jettySize=auto;html=1;exitX=0.5;exitY=1;exitDx=0;exitDy=0;entryX=0.427;entryY=0.911;entryDx=0;entryDy=0;entryPerimeter=0;" edge="1" parent="1" source="8wIXkkKHW7fnLoU9-l2F-5" target="8wIXkkKHW7fnLoU9-l2F-5">
          <mxGeometry relative="1" as="geometry" />
        </mxCell>
        <mxCell id="8wIXkkKHW7fnLoU9-l2F-18" value="" style="shape=umlActor;verticalLabelPosition=bottom;verticalAlign=top;html=1;outlineConnect=0;" vertex="1" parent="1">
          <mxGeometry x="1005" y="100" width="30" height="60" as="geometry" />
        </mxCell>
        <mxCell id="8wIXkkKHW7fnLoU9-l2F-19" value="&lt;h2&gt;Teacher&lt;/h2&gt;" style="rounded=0;whiteSpace=wrap;html=1;" vertex="1" parent="1">
          <mxGeometry x="960" y="160" width="120" height="30" as="geometry" />
        </mxCell>
        <mxCell id="8wIXkkKHW7fnLoU9-l2F-20" value="" style="shape=umlActor;verticalLabelPosition=bottom;verticalAlign=top;html=1;outlineConnect=0;" vertex="1" parent="1">
          <mxGeometry x="990" y="415" width="30" height="60" as="geometry" />
        </mxCell>
        <mxCell id="8wIXkkKHW7fnLoU9-l2F-21" value="&lt;h3&gt;Students&lt;/h3&gt;" style="rounded=0;whiteSpace=wrap;html=1;" vertex="1" parent="1">
          <mxGeometry x="950" y="475" width="120" height="30" as="geometry" />
        </mxCell>
        <mxCell id="8wIXkkKHW7fnLoU9-l2F-23" value="" style="endArrow=classic;html=1;rounded=0;exitX=1;exitY=0.5;exitDx=0;exitDy=0;entryX=0.14;entryY=0.088;entryDx=0;entryDy=0;entryPerimeter=0;" edge="1" parent="1" source="8wIXkkKHW7fnLoU9-l2F-5" target="8wIXkkKHW7fnLoU9-l2F-6">
          <mxGeometry width="50" height="50" relative="1" as="geometry">
            <mxPoint x="-60" y="450" as="sourcePoint" />
            <mxPoint x="-10" y="400" as="targetPoint" />
          </mxGeometry>
        </mxCell>
        <mxCell id="8wIXkkKHW7fnLoU9-l2F-24" value="" style="endArrow=classic;html=1;rounded=0;exitX=1;exitY=0.75;exitDx=0;exitDy=0;entryX=0.14;entryY=0.193;entryDx=0;entryDy=0;entryPerimeter=0;" edge="1" parent="1" source="8wIXkkKHW7fnLoU9-l2F-5" target="8wIXkkKHW7fnLoU9-l2F-6">
          <mxGeometry width="50" height="50" relative="1" as="geometry">
            <mxPoint x="-60" y="450" as="sourcePoint" />
            <mxPoint x="-10" y="400" as="targetPoint" />
          </mxGeometry>
        </mxCell>
        <mxCell id="8wIXkkKHW7fnLoU9-l2F-25" value="" style="endArrow=classic;html=1;rounded=0;exitX=1;exitY=0.5;exitDx=0;exitDy=0;entryX=0;entryY=0.5;entryDx=0;entryDy=0;" edge="1" parent="1" source="8wIXkkKHW7fnLoU9-l2F-5" target="8wIXkkKHW7fnLoU9-l2F-9">
          <mxGeometry width="50" height="50" relative="1" as="geometry">
            <mxPoint x="-60" y="450" as="sourcePoint" />
            <mxPoint x="-10" y="400" as="targetPoint" />
          </mxGeometry>
        </mxCell>
        <mxCell id="8wIXkkKHW7fnLoU9-l2F-26" value="" style="endArrow=classic;html=1;rounded=0;entryX=0;entryY=0.5;entryDx=0;entryDy=0;" edge="1" parent="1" target="8wIXkkKHW7fnLoU9-l2F-10">
          <mxGeometry width="50" height="50" relative="1" as="geometry">
            <mxPoint x="-20" y="320" as="sourcePoint" />
            <mxPoint x="-10" y="400" as="targetPoint" />
          </mxGeometry>
        </mxCell>
        <mxCell id="8wIXkkKHW7fnLoU9-l2F-27" value="" style="endArrow=classic;html=1;rounded=0;exitX=1;exitY=0.5;exitDx=0;exitDy=0;entryX=0;entryY=0.75;entryDx=0;entryDy=0;" edge="1" parent="1" source="8wIXkkKHW7fnLoU9-l2F-5" target="8wIXkkKHW7fnLoU9-l2F-11">
          <mxGeometry width="50" height="50" relative="1" as="geometry">
            <mxPoint x="-60" y="450" as="sourcePoint" />
            <mxPoint x="-10" y="400" as="targetPoint" />
          </mxGeometry>
        </mxCell>
        <mxCell id="8wIXkkKHW7fnLoU9-l2F-28" value="" style="endArrow=classic;html=1;rounded=0;entryX=0;entryY=0.75;entryDx=0;entryDy=0;exitX=1;exitY=0.75;exitDx=0;exitDy=0;" edge="1" parent="1" source="8wIXkkKHW7fnLoU9-l2F-5" target="8wIXkkKHW7fnLoU9-l2F-12">
          <mxGeometry width="50" height="50" relative="1" as="geometry">
            <mxPoint x="-20" y="330" as="sourcePoint" />
            <mxPoint x="-10" y="400" as="targetPoint" />
          </mxGeometry>
        </mxCell>
        <mxCell id="8wIXkkKHW7fnLoU9-l2F-29" value="" style="endArrow=classic;html=1;rounded=0;entryX=0;entryY=0.5;entryDx=0;entryDy=0;" edge="1" parent="1" target="8wIXkkKHW7fnLoU9-l2F-13">
          <mxGeometry width="50" height="50" relative="1" as="geometry">
            <mxPoint x="-20" y="320" as="sourcePoint" />
            <mxPoint x="-10" y="400" as="targetPoint" />
          </mxGeometry>
        </mxCell>
        <mxCell id="8wIXkkKHW7fnLoU9-l2F-30" value="" style="endArrow=classic;html=1;rounded=0;exitX=1;exitY=0.75;exitDx=0;exitDy=0;entryX=0;entryY=0.5;entryDx=0;entryDy=0;" edge="1" parent="1" source="8wIXkkKHW7fnLoU9-l2F-5" target="8wIXkkKHW7fnLoU9-l2F-15">
          <mxGeometry width="50" height="50" relative="1" as="geometry">
            <mxPoint x="-60" y="450" as="sourcePoint" />
            <mxPoint x="-10" y="400" as="targetPoint" />
          </mxGeometry>
        </mxCell>
        <mxCell id="8wIXkkKHW7fnLoU9-l2F-31" value="" style="endArrow=classic;html=1;rounded=0;exitX=1;exitY=0.75;exitDx=0;exitDy=0;entryX=0;entryY=0.5;entryDx=0;entryDy=0;" edge="1" parent="1" source="8wIXkkKHW7fnLoU9-l2F-5" target="8wIXkkKHW7fnLoU9-l2F-16">
          <mxGeometry width="50" height="50" relative="1" as="geometry">
            <mxPoint x="-60" y="450" as="sourcePoint" />
            <mxPoint x="-10" y="400" as="targetPoint" />
          </mxGeometry>
        </mxCell>
        <mxCell id="8wIXkkKHW7fnLoU9-l2F-34" value="" style="endArrow=classic;html=1;rounded=0;entryX=1;entryY=0.5;entryDx=0;entryDy=0;" edge="1" parent="1" target="8wIXkkKHW7fnLoU9-l2F-10">
          <mxGeometry width="50" height="50" relative="1" as="geometry">
            <mxPoint x="950" y="180" as="sourcePoint" />
            <mxPoint x="930" y="400" as="targetPoint" />
          </mxGeometry>
        </mxCell>
        <mxCell id="8wIXkkKHW7fnLoU9-l2F-35" value="" style="endArrow=classic;html=1;rounded=0;entryX=1;entryY=0.5;entryDx=0;entryDy=0;" edge="1" parent="1" target="8wIXkkKHW7fnLoU9-l2F-11">
          <mxGeometry width="50" height="50" relative="1" as="geometry">
            <mxPoint x="960" y="180" as="sourcePoint" />
            <mxPoint x="930" y="400" as="targetPoint" />
          </mxGeometry>
        </mxCell>
        <mxCell id="8wIXkkKHW7fnLoU9-l2F-36" value="" style="endArrow=classic;html=1;rounded=0;entryX=1;entryY=0.5;entryDx=0;entryDy=0;" edge="1" parent="1" target="8wIXkkKHW7fnLoU9-l2F-12">
          <mxGeometry width="50" height="50" relative="1" as="geometry">
            <mxPoint x="950" y="180" as="sourcePoint" />
            <mxPoint x="930" y="400" as="targetPoint" />
          </mxGeometry>
        </mxCell>
        <mxCell id="8wIXkkKHW7fnLoU9-l2F-37" value="" style="endArrow=classic;html=1;rounded=0;entryX=1;entryY=0.5;entryDx=0;entryDy=0;" edge="1" parent="1" target="8wIXkkKHW7fnLoU9-l2F-13">
          <mxGeometry width="50" height="50" relative="1" as="geometry">
            <mxPoint x="950" y="190" as="sourcePoint" />
            <mxPoint x="930" y="400" as="targetPoint" />
          </mxGeometry>
        </mxCell>
        <mxCell id="8wIXkkKHW7fnLoU9-l2F-38" value="" style="endArrow=classic;html=1;rounded=0;entryX=1;entryY=0.75;entryDx=0;entryDy=0;" edge="1" parent="1" target="8wIXkkKHW7fnLoU9-l2F-15">
          <mxGeometry width="50" height="50" relative="1" as="geometry">
            <mxPoint x="960" y="170" as="sourcePoint" />
            <mxPoint x="930" y="400" as="targetPoint" />
          </mxGeometry>
        </mxCell>
        <mxCell id="8wIXkkKHW7fnLoU9-l2F-39" value="" style="endArrow=classic;html=1;rounded=0;exitX=0;exitY=0.25;exitDx=0;exitDy=0;entryX=1;entryY=0.5;entryDx=0;entryDy=0;" edge="1" parent="1" source="8wIXkkKHW7fnLoU9-l2F-21" target="8wIXkkKHW7fnLoU9-l2F-11">
          <mxGeometry width="50" height="50" relative="1" as="geometry">
            <mxPoint x="680" y="440" as="sourcePoint" />
            <mxPoint x="730" y="390" as="targetPoint" />
          </mxGeometry>
        </mxCell>
        <mxCell id="8wIXkkKHW7fnLoU9-l2F-40" value="" style="endArrow=classic;html=1;rounded=0;exitX=0;exitY=0.5;exitDx=0;exitDy=0;entryX=1;entryY=0.5;entryDx=0;entryDy=0;" edge="1" parent="1" source="8wIXkkKHW7fnLoU9-l2F-21" target="8wIXkkKHW7fnLoU9-l2F-12">
          <mxGeometry width="50" height="50" relative="1" as="geometry">
            <mxPoint x="680" y="440" as="sourcePoint" />
            <mxPoint x="730" y="390" as="targetPoint" />
          </mxGeometry>
        </mxCell>
        <mxCell id="8wIXkkKHW7fnLoU9-l2F-41" value="" style="endArrow=classic;html=1;rounded=0;entryX=1;entryY=0.75;entryDx=0;entryDy=0;" edge="1" parent="1" target="8wIXkkKHW7fnLoU9-l2F-13">
          <mxGeometry width="50" height="50" relative="1" as="geometry">
            <mxPoint x="950" y="500" as="sourcePoint" />
            <mxPoint x="730" y="390" as="targetPoint" />
          </mxGeometry>
        </mxCell>
      </root>
    </mxGraphModel>
  </diagram>
</mxfile>
